<?xml version="1.0" encoding="UTF-8" standalone="no"?>
<svg
   xmlns:dc="http://purl.org/dc/elements/1.1/"
   xmlns:cc="http://creativecommons.org/ns#"
   xmlns:rdf="http://www.w3.org/1999/02/22-rdf-syntax-ns#"
   xmlns:svg="http://www.w3.org/2000/svg"
   xmlns="http://www.w3.org/2000/svg"
   xmlns:sodipodi="http://sodipodi.sourceforge.net/DTD/sodipodi-0.dtd"
   xmlns:inkscape="http://www.inkscape.org/namespaces/inkscape"
   width="200mm"
   height="200mm"
   viewBox="0 0 200 200"
   version="1.1"
   id="svg3411"
   inkscape:version="1.0.1 (1.0.1+r74)"
   sodipodi:docname="sdm.svg">
  <defs
     id="defs3405" />
  <sodipodi:namedview
     id="base"
     pagecolor="#ffffff"
     bordercolor="#666666"
     borderopacity="1.0"
     inkscape:pageopacity="0.0"
     inkscape:pageshadow="2"
     inkscape:zoom="0.35"
     inkscape:cx="400"
     inkscape:cy="560"
     inkscape:document-units="mm"
     inkscape:current-layer="layer1"
     inkscape:document-rotation="0"
     showgrid="false"
     inkscape:window-width="1514"
     inkscape:window-height="1016"
     inkscape:window-x="277"
     inkscape:window-y="27"
     inkscape:window-maximized="0" />
  <metadata
     id="metadata3408">
    <rdf:RDF>
      <cc:Work
         rdf:about="">
        <dc:format>image/svg+xml</dc:format>
        <dc:type
           rdf:resource="http://purl.org/dc/dcmitype/StillImage" />
        <dc:title></dc:title>
      </cc:Work>
    </rdf:RDF>
  </metadata>
  <g
     inkscape:label="Layer 1"
     inkscape:groupmode="layer"
     id="layer1">
    <path
       style="display:inline;fill:#3b97c4;fill-opacity:0.287653;stroke:none;stroke-width:0.582589px;stroke-linecap:butt;stroke-linejoin:miter;stroke-opacity:1"
       d="m 67.125061,90.508542 c -2.161747,-0.686662 -2.488492,-1.726807 -2.656882,-3.047536 -0.168252,-1.320799 0.874359,-2.399308 3.037833,-2.331651 2.163475,0.06777 11.180238,0.7319 8.616396,2.23661 -2.563877,1.504835 -2.120012,5.327159 -8.997347,3.142577 z"
       id="path3762"
       sodipodi:nodetypes="sssss"
       inkscape:export-xdpi="245.24001"
       inkscape:export-ydpi="245.24001" />
    <path
       style="display:inline;fill:#3b97c4;fill-opacity:0.388512;stroke:none;stroke-width:0.582589px;stroke-linecap:butt;stroke-linejoin:miter;stroke-opacity:1"
       d="m 93.484636,84.392033 c 0,0 -1.865734,0.325338 -2.03409,-0.99535 -0.168252,-1.320812 -0.115047,-1.576018 2.048549,-1.508361 2.163491,0.06777 6.433332,-0.249674 3.86942,1.254995 -2.563877,1.504779 -3.883879,1.248716 -3.883879,1.248716 z"
       id="path3772"
       sodipodi:nodetypes="csssc"
       inkscape:export-xdpi="245.24001"
       inkscape:export-ydpi="245.24001" />
    <path
       style="display:inline;fill:#3b97c4;fill-opacity:0.664348;stroke:none;stroke-width:0.382576px;stroke-linecap:butt;stroke-linejoin:miter;stroke-opacity:1"
       d="m 68.860926,88.6644 c 0,0 -1.225218,0.213315 -1.335826,-0.653691 -0.110556,-0.867325 -0.07566,-1.034917 1.345223,-0.990495 1.420781,0.04467 4.22472,-0.163969 2.541006,0.824133 -1.68361,0.988172 -2.550403,0.820053 -2.550403,0.820053 z"
       id="path3776"
       sodipodi:nodetypes="csssc"
       inkscape:export-xdpi="245.24001"
       inkscape:export-ydpi="245.24001" />
    <path
       style="display:inline;fill:#a988e4;fill-opacity:0.333935;stroke:none;stroke-width:0.500851px;stroke-linecap:butt;stroke-linejoin:miter;stroke-opacity:1"
       d="m 125.22448,140.62361 c -4.47452,-0.32077 -13.20806,2.55577 -14.48339,-1.25115 -0.79082,-2.36065 5.3976,-4.42666 7.25755,-4.36851 1.86005,0.0586 24.60854,0.99595 22.4044,2.28966 -2.20415,1.29366 -3.67128,4.15452 -15.17856,3.33 z"
       id="path3780"
       sodipodi:nodetypes="sasss"
       inkscape:export-xdpi="245.24001"
       inkscape:export-ydpi="245.24001" />
    <path
       style="display:inline;fill:#a988e4;fill-opacity:0.333935;stroke:none;stroke-width:0.500851px;stroke-linecap:butt;stroke-linejoin:miter;stroke-opacity:1"
       d="m 124.74125,138.35451 c -1.85848,-0.59033 -9.51285,2.58373 -9.65764,1.44827 -0.14476,-1.13551 6.27176,-4.47693 8.13174,-4.41881 1.85995,0.0585 21.90867,2.39838 11.82062,1.99052 -2.71556,-0.10981 -4.38226,2.8581 -10.29472,0.98002 z"
       id="path3782"
       sodipodi:nodetypes="sssss"
       inkscape:export-xdpi="245.24001"
       inkscape:export-ydpi="245.24001" />
    <path
       style="display:inline;fill:#2d394b;fill-opacity:1;stroke:#ffffff;stroke-width:0.677875px;stroke-linecap:butt;stroke-linejoin:miter;stroke-opacity:1"
       d="M 13.805039,42.015565 93.593516,19.453872 186.3284,32.487499 109.1247,60.819043 Z"
       id="path8776"
       sodipodi:nodetypes="ccccc"
       inkscape:export-xdpi="245.24001"
       inkscape:export-ydpi="245.24001" />
    <path
       style="display:inline;fill:#2d394b;fill-opacity:1;stroke:#ffffff;stroke-width:0.677875px;stroke-linecap:butt;stroke-linejoin:miter;stroke-opacity:1"
       d="M 12.794282,92.828119 92.582742,70.266412 185.31766,83.299983 108.11394,111.63162 Z"
       id="path8778"
       sodipodi:nodetypes="ccccc"
       inkscape:export-xdpi="245.24001"
       inkscape:export-ydpi="245.24001" />
    <path
       style="display:inline;fill:#2d394b;fill-opacity:1;stroke:#ffffff;stroke-width:0.677875px;stroke-linecap:butt;stroke-linejoin:miter;stroke-opacity:1"
       d="m 8.5690613,148.87385 79.7885297,-22.56173 92.734879,13.03359 -77.2037,28.33164 z"
       id="path8784"
       sodipodi:nodetypes="ccccc"
       inkscape:export-xdpi="245.24001"
       inkscape:export-ydpi="245.24001" />
    <path
       style="display:inline;fill:#3bccc4;fill-opacity:0.492536;stroke:none;stroke-width:0.956594px;stroke-linecap:butt;stroke-linejoin:miter;stroke-opacity:1"
       d="m 90.580834,47.190704 c -8.546158,-0.61227 -23.110753,-2.456356 -23.892331,-9.656894 -0.505274,-4.654727 10.309075,-8.45466 13.861529,-8.343605 3.552453,0.111194 79.043608,2.694026 74.833778,5.164891 -4.2099,2.470892 -42.82471,14.410401 -64.802976,12.835608 z"
       id="path8786"
       sodipodi:nodetypes="sasss"
       inkscape:export-xdpi="245.24001"
       inkscape:export-ydpi="245.24001" />
    <path
       style="display:inline;fill:#3bccc4;fill-opacity:0.492536;stroke:none;stroke-width:0.956594px;stroke-linecap:butt;stroke-linejoin:miter;stroke-opacity:1"
       d="m 90.580834,42.15388 c -3.54962,-1.127537 -6.656499,-5.219893 -6.932923,-7.388598 -0.276442,-2.168692 3.104529,-3.168411 6.656931,-3.057301 3.552471,0.111056 40.309718,2.855271 36.099908,5.326108 -4.20986,2.470975 -24.53138,8.706852 -35.823916,5.119791 z"
       id="path8788"
       sodipodi:nodetypes="sssss"
       inkscape:export-xdpi="245.24001"
       inkscape:export-ydpi="245.24001" />
    <path
       style="display:inline;fill:#3b97c4;fill-opacity:0.388512;stroke:none;stroke-width:0.82898px;stroke-linecap:butt;stroke-linejoin:miter;stroke-opacity:1"
       d="M 73.990373,96.063427 C 67.403575,95.466798 53.649389,95.639895 53.589396,89.723354 53.480913,79.012942 87.544677,77.644997 90.282714,77.75319 c 2.738036,0.108427 23.879546,-1.975846 30.240446,1.20356 3.74251,1.870599 -29.593401,18.641039 -46.532787,17.106677 z"
       id="path8792"
       sodipodi:nodetypes="sasss"
       inkscape:export-xdpi="245.24001"
       inkscape:export-ydpi="245.24001" />
    <path
       style="display:inline;fill:#3b97c4;fill-opacity:0.287653;stroke:none;stroke-width:0.582589px;stroke-linecap:butt;stroke-linejoin:miter;stroke-opacity:1"
       d="m 67.125061,90.508542 c -2.161747,-0.686662 -2.488492,-1.726807 -2.656882,-3.047536 -0.168252,-1.320799 0.874359,-2.399308 3.037833,-2.331651 2.163475,0.06777 11.180238,0.7319 8.616396,2.23661 -2.563877,1.504835 -2.120012,5.327159 -8.997347,3.142577 z"
       id="path8794"
       sodipodi:nodetypes="sssss"
       inkscape:export-xdpi="245.24001"
       inkscape:export-ydpi="245.24001" />
    <path
       style="display:inline;fill:#3b97c4;fill-opacity:0.388512;stroke:none;stroke-width:0.582589px;stroke-linecap:butt;stroke-linejoin:miter;stroke-opacity:1"
       d="m 90.994538,85.840648 c -2.161799,-0.686704 -2.488543,-1.726752 -2.656917,-3.047536 -0.168252,-1.320798 0.874342,-2.399377 3.037834,-2.331693 2.163526,0.06777 11.180225,0.731859 8.616344,2.236653 -2.563843,1.504835 -2.119909,5.327172 -8.997261,3.142576 z"
       id="path8796"
       sodipodi:nodetypes="sssss"
       inkscape:export-xdpi="245.24001"
       inkscape:export-ydpi="245.24001" />
    <path
       style="display:inline;fill:#3b97c4;fill-opacity:0.388512;stroke:none;stroke-width:0.582589px;stroke-linecap:butt;stroke-linejoin:miter;stroke-opacity:1"
       d="m 93.484636,84.392033 c 0,0 -1.865734,0.325338 -2.03409,-0.99535 -0.168252,-1.320812 -0.115047,-1.576018 2.048549,-1.508361 2.163491,0.06777 6.433332,-0.249674 3.86942,1.254995 -2.563877,1.504779 -3.883879,1.248716 -3.883879,1.248716 z"
       id="path8798"
       sodipodi:nodetypes="csssc"
       inkscape:export-xdpi="245.24001"
       inkscape:export-ydpi="245.24001" />
    <path
       style="display:inline;fill:#3b97c4;fill-opacity:0.664348;stroke:none;stroke-width:0.382576px;stroke-linecap:butt;stroke-linejoin:miter;stroke-opacity:1"
       d="m 68.860926,88.6644 c 0,0 -1.225218,0.213315 -1.335826,-0.653691 -0.110556,-0.867325 -0.07566,-1.034917 1.345223,-0.990495 1.420781,0.04467 4.22472,-0.163969 2.541006,0.824133 -1.68361,0.988172 -2.550403,0.820053 -2.550403,0.820053 z"
       id="path8800"
       sodipodi:nodetypes="csssc"
       inkscape:export-xdpi="245.24001"
       inkscape:export-ydpi="245.24001" />
    <path
       style="display:inline;fill:#a988e4;fill-opacity:0.333935;stroke:none;stroke-width:0.500851px;stroke-linecap:butt;stroke-linejoin:miter;stroke-opacity:1"
       d="m 125.22448,140.62361 c -4.47452,-0.32077 -13.20806,2.55577 -14.48339,-1.25115 -0.79082,-2.36065 5.3976,-4.42666 7.25755,-4.36851 1.86005,0.0586 24.60854,0.99595 22.4044,2.28966 -2.20415,1.29366 -3.67128,4.15452 -15.17856,3.33 z"
       id="path8802"
       sodipodi:nodetypes="sasss"
       inkscape:export-xdpi="245.24001"
       inkscape:export-ydpi="245.24001" />
    <path
       style="display:inline;fill:#a988e4;fill-opacity:0.333935;stroke:none;stroke-width:0.500851px;stroke-linecap:butt;stroke-linejoin:miter;stroke-opacity:1"
       d="m 124.74125,138.35451 c -1.85848,-0.59033 -9.51285,2.58373 -9.65764,1.44827 -0.14476,-1.13551 6.27176,-4.47693 8.13174,-4.41881 1.85995,0.0585 21.90867,2.39838 11.82062,1.99052 -2.71556,-0.10981 -4.38226,2.8581 -10.29472,0.98002 z"
       id="path8804"
       sodipodi:nodetypes="sssss"
       inkscape:export-xdpi="245.24001"
       inkscape:export-ydpi="245.24001" />
  </g>
</svg>
